<svg xmlns="http://www.w3.org/2000/svg" width="278.993" height="77.26" viewBox="0 0 130 36">
  <defs>
    <style>
      .cls-1 {
        fill: #12a0f4;
      }

      .cls-1, .cls-2 {
        fill-rule: evenodd;
      }

      .cls-2 {
        fill: #999;
      }
    </style>
  </defs>
  <path id="Color_Fill_1" data-name="Color Fill 1" class="cls-1" d="M19.574,35V30.729c1.367-1.014,4.665-3.622,5.316-5.161,0.644-1.522-.177-6.05-0.177-6.05l-0.177-3.381S23.825,8.676,23.118,5.282A2.772,2.772,0,0,0,22.232,5.1l-0.177.534c-0.429.679-.178,2.545-0.177,3.559q0.177,4.537.355,9.076a2.038,2.038,0,0,1-1.241.356l-0.177-.178C20.82,14.5,20.805,8.563,19.928,5.1H19.219a3.21,3.21,0,0,1-.532.712c0.02,4.075.543,9.077-.177,12.813H17.447c-0.732-2.213-.19-8.556-0.177-11.389a3.815,3.815,0,0,1-.177-1.78A1.848,1.848,0,0,0,16.029,5.1l-0.177.534C15.4,6.371,15.5,9.07,15.5,10.265L15.143,18.45a3.8,3.8,0,0,1-1.24.178V18.273c-0.542-.874-0.008-2.493,0-3.559,0.024-3.209.53-6.536,0-9.431A2.772,2.772,0,0,0,13.017,5.1a1.866,1.866,0,0,0-.354,1.068c-0.174,1.416-.532,4.627-0.532,4.627L11.068,20.942s-0.612,3.094-.177,4.271c0.758,2.052,3.922,4.221,5.493,5.695V35C8.368,35,.867,27.393.867,18.217A16.778,16.778,0,0,1,17.767,1.3a17.078,17.078,0,0,1,16.9,16.916C34.667,28.7,25.286,35,19.574,35ZM14.789,20.052a4.613,4.613,0,0,1,2.481.712l0.709,0.89,0.354-.356c0.613-.441,1.793-1.566,3.012-1.246a2.913,2.913,0,0,1,2.127,1.957c0.421,4.271-3.482,4.736-5.316,7.3l-0.177-.178c-1.393-.793-6.239-4.35-5.316-7.118A2.579,2.579,0,0,1,14.789,20.052Z"/>
  <path id="food" class="cls-1" d="M83.368,11.51H85.14a2.526,2.526,0,0,1,.532,1.6,2.927,2.927,0,0,1-2.3.712v8.008c0,0.876.219,2.464-.177,3.025a1.624,1.624,0,0,1-1.418.356,0.638,0.638,0,0,0-.354-0.178c-0.275-3.008-.179-7.607-0.354-11.211l-0.886-.178a2.732,2.732,0,0,1-.354-1.6,1.894,1.894,0,0,1,1.24-.534c0.148-1.862.809-3.6,2.3-4.093,0.7-.566,1.891-0.559,3.19-0.534a2.526,2.526,0,0,1,.532,1.6L86.381,9.2c-1.379.626-1.726-.481-2.658,0.89A2.1,2.1,0,0,0,83.368,11.51Zm42-4.627a6.013,6.013,0,0,1,1.418.178c0,0.119,0,.237.028,0.187,0.273,0.634.122,9.8,0.155,11.4,0.054,2.633-1.645,6.506-6.067,6.506a6.121,6.121,0,0,1-6.5-6.506c0-4.366,2.552-6.94,6.5-6.94,1.871,0,3.777,1.237,3.9,1.735,0-1.839.035-4.012,0.035-5.85A3.382,3.382,0,0,0,125.366,6.884Zm-4.9,7c-1.555,0-3.9,1.283-3.9,4.771a4.2,4.2,0,0,0,3.9,4.337c1.214,0,4.333-.546,4.333-4.771A4.3,4.3,0,0,0,120.467,13.88Z"/>
  <path id="Color_Fill_2" data-name="Color Fill 2" class="cls-1" d="M93,11.711c8.093,0,8.514,13.446,0,13.446C84.539,25.157,84.569,11.711,93,11.711Zm0,2.169c-5.353,0-5.455,9.109,0,9.109C98.426,22.988,98.458,13.88,93,13.88Z"/>
  <path id="Color_Fill_2_copy" data-name="Color Fill 2 copy" class="cls-1" d="M106.863,11.711c8.093,0,8.514,13.446,0,13.446C98.405,25.157,98.436,11.711,106.863,11.711Zm0,2.169c-5.354,0-5.456,9.109,0,9.109C112.292,22.988,112.325,13.88,106.863,13.88Z"/>
  <path id="you" class="cls-2" d="M40.838,11.866h0.709L45.978,22.9l0.177-.178c1.238-2.343,2.439-6.077,3.544-8.364,0.5-1.026.309-2.228,1.595-2.491a2.189,2.189,0,0,1,.177.89c-0.612,1.313-1.158,3.173-1.772,4.627-1.074,2.542-2.294,5.287-3.367,7.83-0.56,1.327-1.154,3.582-2.126,4.8-0.274.126-.024,0.023-0.532,0a0.611,0.611,0,0,0-.177-0.356c0.379-.919,2.108-4.468,1.949-5.338a16.008,16.008,0,0,0-1.063-2.669L41.9,15.425S40.486,13.143,40.838,11.866Zm16.795-.155c8.161,0.132,8.21,13.436,0,13.446C49.83,25.166,49.689,11.891,57.633,11.711Zm8.191,0.155c0.236,0,.672.278,0.909,0.278,0.261,4.966-1.042,11.052,3.3,11.792,6.209,1.057,5.4-7.068,5.356-11.892,1.181-.413.873-0.633,0.873-0.333,0.344,0.21.19,3.767,0.19,4.96,0,8.074-3.813,8.542-5.592,8.542-4.585,0-5.218-3.879-5.218-9.075C65.648,14.71,65.54,12.024,65.825,11.866Zm-7.994,1.068c-6.2,0-6.756,10.874-.2,10.922C64.057,23.9,64.282,13.045,57.831,12.934Z"/>
</svg>
